<svg xmlns="http://www.w3.org/2000/svg" width="36.969" height="38.062"><path d="M10.023 31.811a40.905 40.905 0 0 1 7.582 5.252 3.29 3.29 0 0 0 5.455-1.133c1.624-4.635 5.216-7.571 8.128-11.129 4.434-5.417 5.511-12.054 5.768-18.772.134-3.489-2.5-5.8-5.852-6.007-2.5-.152-4.847.358-6.524 2.463-1.1 1.381-2.075 2.866-3.118 4.3-1.362 1.87-1.877 2.048-3.653.486-2.4-2.107-4.947-3.686-8.491-3.79-3.466.007-7.4 2.978-8.574 6.841a17.479 17.479 0 0 0-.239 9.245c1.313 5.587 4.849 9.417 9.518 12.244zM3.745 12.297c.926-3.816 5.2-6.022 8.163-3.966 2 1.384 4.1 2.553 5.738 4.437a33.506 33.506 0 0 0 3.882 3.576 1.273 1.273 0 0 0 1.788.1 5.6 5.6 0 0 0 .743-1.59c-1.4-3.627-.954-6.733 1.739-9.379a4.419 4.419 0 0 1 5.986-.67c1.406.886 2.406 2.121 2.158 3.839-.825 5.7-1.239 11.524-6.046 15.745a62.406 62.406 0 0 0-5.723 6.472c-1.053 1.224-2.105 1.228-3.447.384-2.238-1.409-4.581-2.643-6.871-3.968-4.04-2.338-6.426-5.981-7.866-10.356a8.347 8.347 0 0 1-.244-4.624z" fill="#e25857" fill-rule="evenodd"/></svg>