<svg xmlns="http://www.w3.org/2000/svg" width="29.031" height="32.22"><path d="M.007.64A.56.56 0 0 1 .999.22a3.385 3.385 0 0 1 .119 1.39H12.04a.563.563 0 0 1 .655.51c.024.72 0 1.43.009 2.15h15.559a.678.678 0 0 1 .739.42 1.2 1.2 0 0 1-.381.95q-2.637 3.9-5.26 7.8c1.789 2.67 3.6 5.34 5.4 8a.861.861 0 0 1 .239.78.6.6 0 0 1-.638.37H9.079a2.633 2.633 0 0 1-2.077-.91 2.774 2.774 0 0 1-.175-3.39c-1.9.02-3.806 0-5.708.01v13.32a.72.72 0 0 1-.305.6h-.5a.73.73 0 0 1-.305-.6Q.006 16.125.007.64zm1.112 2.11v14.41h10.472V2.74q-5.236 0-10.472.01zm11.585 2.68c0 4.1.007 8.21-.006 12.32a.639.639 0 0 1-.406.55 9.027 9.027 0 0 0-1.56-.06 7.767 7.767 0 0 0-2.308.17 1.565 1.565 0 0 0-.975 1.62 1.537 1.537 0 0 0 1.578 1.42c6.131.01 12.261 0 18.393.01-1.685-2.46-3.336-4.94-5.011-7.41a.973.973 0 0 1-.278-.72 3.655 3.655 0 0 1 .5-.82c1.6-2.36 3.187-4.73 4.789-7.09-4.909.01-9.813 0-14.72.01z" fill="#d44e4d" fill-rule="evenodd"/></svg>