<svg xmlns="http://www.w3.org/2000/svg" width="31.813" height="33.66"><path d="M-.004.05C2.224-.01 4.455.04 6.685.02H31.79q.018 12.765 0 25.54h-5.434c-.006 2.62.011 5.24-.008 7.86-1.243-.96-2.431-2-3.649-2.99-1.335 1.06-2.633 2.17-3.968 3.23-.02-2.7 0-5.4-.008-8.1H-.001Q-.004 12.795-.004.05zm1.009.99v23.49q8.861 0 17.722.01v-2.9a6.611 6.611 0 0 1-.574-10.41 6.374 6.374 0 0 1 9.028.73 6.584 6.584 0 0 1 1.46 5.31 6.3 6.3 0 0 1-1.793 3.52c-.154.17-.318.33-.483.49-.008 1.09 0 2.17 0 3.25 1.476 0 2.952 0 4.428.01q0-11.76-.009-23.5H1.005zm20.871 9.68a5.267 5.267 0 0 0-3.382 1.59 5.468 5.468 0 0 0-1.609 4.12 5.633 5.633 0 0 0 1.294 3.35 5.437 5.437 0 0 0 3.894 1.92 5.381 5.381 0 0 0 4.664-2.34 5.56 5.56 0 0 0 .8-4.56 5.464 5.464 0 0 0-5.661-4.08zm-2.148 11.47v9.36c.947-.79 1.9-1.57 2.864-2.35.129-.13.271.05.381.12.8.66 1.6 1.32 2.391 1.99-.011-3.12-.005-6.24 0-9.36a6.438 6.438 0 0 1-5.636.24z" fill="#d44e4d" fill-rule="evenodd"/></svg>