<svg xmlns="http://www.w3.org/2000/svg" width="28.281" height="28.82"><path d="M-.008.66A.563.563 0 0 1 .523.01a.572.572 0 0 1 .55.65v27.06q13.437 0 26.875-.01a.786.786 0 0 1 .331.5.541.541 0 0 1-.569.59q-13.54.015-27.078 0a.546.546 0 0 1-.639-.59Q-.019 14.425-.008.66zm19.079 5.16c2.25-.17 4.5-.36 6.748-.52a.62.62 0 0 1 .709.64c.178 2.34.359 4.67.513 7a.623.623 0 0 1-.83.6.765.765 0 0 1-.388-.55c-.092-1.95-.334-3.89-.384-5.84q-4.606 6.735-9.218 13.46a.6.6 0 0 1-.879.19c-.81-.73-1.569-1.52-2.35-2.28-1.058-1.07-2.158-2.09-3.213-3.16q-2.417 3.6-4.84 7.2a1.527 1.527 0 0 1-.645.65.614.614 0 0 1-.682-.79 8.07 8.07 0 0 1 .727-1.15c1.564-2.34 3.133-4.66 4.7-7a.894.894 0 0 1 .653-.5 1.249 1.249 0 0 1 .683.44c1.729 1.73 3.5 3.42 5.227 5.15 2.881-4.24 5.8-8.45 8.687-12.69-1.746.1-3.488.27-5.234.38a.6.6 0 0 1-.654-.71.623.623 0 0 1 .67-.52z" fill="#d44e4d" fill-rule="evenodd"/></svg>