<svg xmlns="http://www.w3.org/2000/svg" width="382.121" height="55.79"><path d="M11.205 32.8l-2.889 1.21 2.25 5.36-5.414 2.27-2.25-5.35-2.9 1.21 5.742 13.67 2.9-1.21-2.478-5.9 5.414-2.28 2.478 5.9 2.889-1.21zm17.709 9l-2.731-7.04a3.646 3.646 0 0 0-2.227-2.38 5.427 5.427 0 0 0-3.622.33 9.276 9.276 0 0 0-3.677 2.53l1.71 1.58a7.833 7.833 0 0 1 2.682-1.92 1.536 1.536 0 0 1 2.269.97l.179.46-1.812.77a7.284 7.284 0 0 0-3.208 2.26 2.992 2.992 0 0 0-.216 2.94 3.56 3.56 0 0 0 1.835 2.13 3.472 3.472 0 0 0 2.735-.05 5.134 5.134 0 0 0 1.872-1.14 4.526 4.526 0 0 0 1.006-1.85l.075-.03 1.116 1.22zm-4.427-2.92a2.182 2.182 0 0 1-.007 1.77 2.382 2.382 0 0 1-1.379 1.2 1.252 1.252 0 0 1-1.872-.68 1.538 1.538 0 0 1 .123-1.51 3.88 3.88 0 0 1 1.7-1.18l1.1-.47zm8.454-10.65l1.379 3.99a3.512 3.512 0 0 0 1.842 2.22 4.048 4.048 0 0 0 3.023-.04 7.711 7.711 0 0 0 1.61-.8 9.288 9.288 0 0 0 1.627-1.41l1.471 4.25 2.924-1.01-3.706-10.72-2.924 1.02 1.6 4.63a13.507 13.507 0 0 1-1.289 1 6.443 6.443 0 0 1-1.5.73 1.262 1.262 0 0 1-1.778-.95l-1.355-3.92zm12.424-4.26l.7 2.21 3.548-1.13 2.729 8.59 2.949-.93-2.73-8.59 3.537-1.13-.7-2.21zm16.08-1.73a2.327 2.327 0 0 1 3.44-.99 4.678 4.678 0 0 1 1.23 2.27 4.825 4.825 0 0 1 .19 2.6 1.945 1.945 0 0 1-1.47 1.32 1.978 1.978 0 0 1-1.969-.32 4.8 4.8 0 0 1-1.241-2.29 4.706 4.706 0 0 1-.18-2.59zm6.2-2.4a4.778 4.778 0 0 0-2.41-1.43 5.686 5.686 0 0 0-2.964.13 5.311 5.311 0 0 0-3.485 2.61 6.075 6.075 0 0 0-.188 4.56 6.9 6.9 0 0 0 1.514 2.81 4.811 4.811 0 0 0 2.414 1.44 5.79 5.79 0 0 0 2.965-.12 5.281 5.281 0 0 0 3.47-2.63 6.109 6.109 0 0 0 .2-4.57 6.81 6.81 0 0 0-1.518-2.8zm8.041-4.81l2.72 11.01 3.6-.89 3.158-8.95c.22 1.45.427 2.57.62 3.35l1.086 4.39 2.9-.71-2.72-11.01-3.613.89-3.173 8.98c-.291-1.83-.492-2.97-.606-3.43l-1.075-4.35zm17.443.3l.454 2.1 1.17-.26a6.593 6.593 0 0 1 2.449-.19 1.083 1.083 0 0 1 .989.83 1.057 1.057 0 0 1-.528 1.1 5.647 5.647 0 0 1-2.138.81 8.76 8.76 0 0 1-2.017.2 9.156 9.156 0 0 1-2-.22l.543 2.5a10.8 10.8 0 0 0 4.41-.24 9.206 9.206 0 0 0 2.821-1.06 4.214 4.214 0 0 0 1.631-1.62 2.791 2.791 0 0 0 .264-1.94 2.337 2.337 0 0 0-.932-1.49 4.01 4.01 0 0 0-2.145-.54l-.021-.09c1.391-.7 1.952-1.67 1.68-2.92a2.489 2.489 0 0 0-1.715-1.88 6.254 6.254 0 0 0-3.493-.07 14.028 14.028 0 0 0-2.435.73 13.468 13.468 0 0 0-2.151 1.13l1.35 1.92a9.982 9.982 0 0 1 1.648-.9 9.711 9.711 0 0 1 1.688-.56 4.148 4.148 0 0 1 1.793-.11.871.871 0 0 1 .7.69.963.963 0 0 1-.527 1.04 7.44 7.44 0 0 1-2.373.8zm22.754 1.27a6.454 6.454 0 0 0 .561-4.65 6.262 6.262 0 0 0-2.042-4.02 5.081 5.081 0 0 0-4.148-.72 8.276 8.276 0 0 0-1.841.57 8.991 8.991 0 0 0-1.589.87l1.234 1.94a6.463 6.463 0 0 1 2.482-1.1 1.971 1.971 0 0 1 1.643.34 3.142 3.142 0 0 1 .946 1.74l-4.212.76.364 2.02 4.212-.75a3.126 3.126 0 0 1-.354 2.04 2.232 2.232 0 0 1-1.582.94 7.772 7.772 0 0 1-3.408-.21l.427 2.38a7.611 7.611 0 0 0 3.558.07 5.23 5.23 0 0 0 3.747-2.22zm1.274-10.4l.355 2.29 3.678-.56 1.375 8.91 3.057-.47-1.375-8.91 3.669-.57-.354-2.3zm16.147.79a2.325 2.325 0 0 1 3.553-.45 4.7 4.7 0 0 1 .86 2.44 4.838 4.838 0 0 1-.219 2.6 2.3 2.3 0 0 1-3.553.44 4.728 4.728 0 0 1-.867-2.46 4.643 4.643 0 0 1 .224-2.57zm6.5-1.41a4.721 4.721 0 0 0-2.157-1.78 5.737 5.737 0 0 0-2.946-.35 5.329 5.329 0 0 0-3.852 2.04 6.06 6.06 0 0 0-.9 4.47 6.831 6.831 0 0 0 1.055 3.01 4.765 4.765 0 0 0 2.159 1.8 5.637 5.637 0 0 0 2.947.35 5.288 5.288 0 0 0 3.839-2.06 6.089 6.089 0 0 0 .907-4.48 6.8 6.8 0 0 0-1.056-3zm3.191-2.89l1.123 11.28 3.078-.31-.893-8.97 4.713-.47-.23-2.31zm13.42 1.9a2.331 2.331 0 0 1 3.571-.25 4.671 4.671 0 0 1 .729 2.48 4.834 4.834 0 0 1-.356 2.58 2.3 2.3 0 0 1-3.571.25 4.74 4.74 0 0 1-.736-2.5 4.668 4.668 0 0 1 .359-2.56zm6.563-1.06a4.812 4.812 0 0 0-2.06-1.9 5.728 5.728 0 0 0-2.924-.49 5.283 5.283 0 0 0-3.955 1.83 6.052 6.052 0 0 0-1.133 4.41 6.9 6.9 0 0 0 .894 3.07 4.777 4.777 0 0 0 2.061 1.91 5.731 5.731 0 0 0 2.925.5 5.271 5.271 0 0 0 3.943-1.85 6.084 6.084 0 0 0 1.142-4.42 6.835 6.835 0 0 0-.897-3.06zm12.031 5.99a14.757 14.757 0 0 0 1.133-3.2 30.446 30.446 0 0 0 .594-3.6l2.322-.07.189 6.75zm8.993-.25l-1.663.05-.255-9.08-8.009.23a28.392 28.392 0 0 1-.774 5.29 14.3 14.3 0 0 1-1.526 3.85l-.952.03.177 6.33 2.778-.08-.114-4.07 7.624-.21.114 4.07 2.778-.08zm8.323-6.44a2.61 2.61 0 0 1 .59 1.78l-4.34-.02a2.957 2.957 0 0 1 .64-1.77 1.963 1.963 0 0 1 1.55-.61 2.056 2.056 0 0 1 1.556.62zm1.09 8.74a7.156 7.156 0 0 0 1.74-.6l.01-2.39a9.726 9.726 0 0 1-1.91.67 8.674 8.674 0 0 1-1.94.21 2.734 2.734 0 0 1-2.05-.75 2.98 2.98 0 0 1-.77-2.06l7.31.03.01-1.51a5.189 5.189 0 0 0-1.33-3.78 4.986 4.986 0 0 0-3.73-1.39 5.08 5.08 0 0 0-3.95 1.55 6.281 6.281 0 0 0-1.441 4.4 5.705 5.705 0 0 0 1.531 4.28 5.807 5.807 0 0 0 4.27 1.53 11.042 11.042 0 0 0 2.246-.19zm4.1-11.3l-.07 2.32 3.72.12-.29 9.01 3.09.1.29-9.01 3.71.12.08-2.32zm13 .45l-.74 11.31 3.71.25 5.72-7.58c-.23 1.46-.37 2.59-.43 3.39l-.29 4.51 2.98.2.74-11.32-3.71-.24-5.74 7.59c.27-1.82.43-2.97.46-3.44l.29-4.48zm26.07 13.63a5.139 5.139 0 0 0 1.58-.49l.29-2.63a5.869 5.869 0 0 1-1.59.57 5.437 5.437 0 0 1-1.67.05q-2.4-.255-2.03-3.57c.25-2.27 1.18-3.32 2.77-3.14a4.487 4.487 0 0 1 1.23.33 13.847 13.847 0 0 1 1.3.63l1.17-2.28a7.9 7.9 0 0 0-3.42-1.16 5.416 5.416 0 0 0-4.27 1.06 6.192 6.192 0 0 0-1.92 4.23q-.645 5.775 4.62 6.36a8.611 8.611 0 0 0 1.936.04zm7.97-4.88l.77-5.45-3.06-.44-1.59 11.23 3.07.43.8-5.69 3.79 6.34 3.47.49-4.01-6.53 5.2-4.75-3.37-.48zm18.07 8.79l1.29-7.44a3.7 3.7 0 0 0-.68-3.19 5.432 5.432 0 0 0-3.28-1.58 9.229 9.229 0 0 0-4.45.27l.65 2.23a7.964 7.964 0 0 1 3.29-.26 1.538 1.538 0 0 1 1.44 2l-.08.49-1.95-.28a7.326 7.326 0 0 0-3.92.29 2.984 2.984 0 0 0-1.69 2.4 3.566 3.566 0 0 0 .47 2.78 3.475 3.475 0 0 0 2.37 1.36 5.149 5.149 0 0 0 2.19-.01 4.543 4.543 0 0 0 1.81-1.06l.08.01.33 1.62zm-2.29-4.78a2.191 2.191 0 0 1-.92 1.51 2.4 2.4 0 0 1-1.8.31 1.243 1.243 0 0 1-1.25-1.54 1.535 1.535 0 0 1 .88-1.23 3.878 3.878 0 0 1 2.06-.14l1.19.17zm9.72-5.34l-3.13-.67 2.95 6.19-5.7 4.81 3.23.69 5.43-4.72-1.2 5.63 2.81.6 1.21-5.63 3.02 6.53 3.23.69-3.24-6.73 5.22-4.44-3.12-.67-5.1 4.55 1.15-5.39-2.81-.6-1.15 5.38zm16.25 15.21l-.31.5a3.2 3.2 0 0 1-1.3 1.23 2.2 2.2 0 0 1-1.52.14 5.292 5.292 0 0 1-1.14-.43l-.6 2.38a6.917 6.917 0 0 0 1.48.55 4.718 4.718 0 0 0 2.98-.15 5.543 5.543 0 0 0 2.48-2.12l7.78-11.22-3.21-.81-3.6 5.67a8.928 8.928 0 0 0-.91 1.8l-.05-.02a8.852 8.852 0 0 0 .11-2l-.51-6.71-3.28-.83zm10.6-8.91l-.64 2.23 3.58 1.02-2.46 8.67 2.97.85 2.47-8.67 3.57 1.01.63-2.23zm15.21 10.49l2.13 5.55 2.49-.45-1.58-4.24 3.8-2.46-1.73-1.85-5.02 3.2zm4.87 1.62l2.12 5.54 2.5-.45-1.58-4.24 3.8-2.46-1.74-1.85-5.01 3.2zm18.63 1.23a6.5 6.5 0 0 0-3.02-1.92l-5.45-2-3.91 10.65 5.46 2a6.639 6.639 0 0 0 3.78.46 2.834 2.834 0 0 0 2.09-1.92 2.261 2.261 0 0 0-.08-1.82 3.258 3.258 0 0 0-1.51-1.44l.02-.07a2.779 2.779 0 0 0 1.87-.2 2.249 2.249 0 0 0 1.08-1.26 2.5 2.5 0 0 0-.334-2.48zm-4.84 6.82a2.566 2.566 0 0 1-1.54-.17l-2.36-.87.92-2.51 2.31.85a3.094 3.094 0 0 1 1.35.81 1.016 1.016 0 0 1 .15 1.09 1.21 1.21 0 0 1-.834.8zm1.35-4.5a3.112 3.112 0 0 1-1.5-.25l-2.1-.77.77-2.1 2.44.89c1.02.38 1.42.89 1.18 1.54a.963.963 0 0 1-.794.69zm12.22 12.52l2.82-7.01a3.645 3.645 0 0 0 0-3.26 5.406 5.406 0 0 0-2.88-2.23 9.322 9.322 0 0 0-4.41-.67l.18 2.32a8.029 8.029 0 0 1 3.27.43 1.542 1.542 0 0 1 .99 2.26l-.19.46-1.84-.68a7.461 7.461 0 0 0-3.89-.54 3.029 3.029 0 0 0-2.17 2 3.67 3.67 0 0 0-.12 2.82 3.471 3.471 0 0 0 2.04 1.82 5.2 5.2 0 0 0 2.14.45 4.6 4.6 0 0 0 2-.66l.08.03-.02 1.65zm-1.24-5.16a2.179 2.179 0 0 1-1.21 1.29 2.363 2.363 0 0 1-1.82-.07 1.251 1.251 0 0 1-.91-1.77 1.526 1.526 0 0 1 1.12-1.02 3.886 3.886 0 0 1 2.05.3l1.12.41zm6.87 7.48l-.39.44a3.274 3.274 0 0 1-1.49 1 2.136 2.136 0 0 1-1.51-.11 5.449 5.449 0 0 1-1.07-.61l-.984 2.25a7.744 7.744 0 0 0 1.37.79 4.812 4.812 0 0 0 2.97.33 5.56 5.56 0 0 0 2.79-1.68l9.51-9.81-3.04-1.33-4.48 5.01a8.611 8.611 0 0 0-1.18 1.63l-.06-.02a8.568 8.568 0 0 0 .44-1.96l.59-6.7-3.1-1.35zm19.96 2.81l-1.45-5.77-2.52.14 1.05 4.4-4.05 1.99 1.49 2.04 5.36-2.56zm-4.65-2.18l-1.44-5.78-2.52.15 1.05 4.39-4.06 2 1.5 2.03 5.36-2.55zm10.03 5.88l.27-.54a1.723 1.723 0 0 1 .67-.77 6.016 6.016 0 0 1 1.6-.42 7.289 7.289 0 0 0 2.54-.77 3.614 3.614 0 0 0 1.32-1.5 3.279 3.279 0 0 0 .1-2.94 5.167 5.167 0 0 0-2.52-2.39 9.64 9.64 0 0 0-4.86-1.02l-.01 2.48a7.888 7.888 0 0 1 3.55.67 2.34 2.34 0 0 1 1.06.92 1.128 1.128 0 0 1-.02 1.11 1.683 1.683 0 0 1-.78.8 6.225 6.225 0 0 1-1.81.48 5.255 5.255 0 0 0-2.04.69 3.306 3.306 0 0 0-1.14 1.32l-.33.67zm-4.4 3.09a2.088 2.088 0 0 0 2.34 1.17 1.688 1.688 0 0 0 .98-.92 1.658 1.658 0 0 0 .16-1.35 1.79 1.79 0 0 0-.96-.98 1.868 1.868 0 0 0-1.38-.21 1.689 1.689 0 0 0-.99.95 1.668 1.668 0 0 0-.154 1.34z" fill="#fff" fill-rule="evenodd"/></svg>