<svg xmlns="http://www.w3.org/2000/svg" width="27.719" height="26.97"><path d="M13.647.03a.517.517 0 0 1 .663.28q2.012 4.11 4.019 8.23c2.681.4 5.364.78 8.045 1.17a10.074 10.074 0 0 1 1.091.19.541.541 0 0 1 .061.89q-3.232 3.2-6.426 6.42l1.478 8.6a2.972 2.972 0 0 1 .077.73.6.6 0 0 1-.585.37c-2.693-1.42-5.367-2.87-8.059-4.28a.424.424 0 0 0-.4.09c-2.576 1.39-5.15 2.79-7.728 4.17a.51.51 0 0 1-.721-.56c.482-3.04 1.023-6.07 1.492-9.11-2.087-2.02-4.128-4.09-6.207-6.11a.87.87 0 0 1-.432-.77.547.547 0 0 1 .541-.43c2.578-.39 5.158-.77 7.736-1.17a6.5 6.5 0 0 0 1.155-.22c1.229-2.67 2.545-5.29 3.791-7.95a.958.958 0 0 1 .409-.54zm-3.5 9.32a.468.468 0 0 1-.422.22c-2.7.42-5.406.81-8.1 1.24 1.843 1.79 3.639 3.62 5.481 5.4a1.2 1.2 0 0 1 .6.97c-.419 2.76-.942 5.5-1.326 8.27 2.4-1.29 4.788-2.59 7.183-3.89a1.536 1.536 0 0 1 .478-.11q3.711 1.995 7.433 3.95c-.436-2.76-.95-5.51-1.4-8.27a.492.492 0 0 1 .183-.52c1.961-1.96 3.9-3.93 5.882-5.88-2.726-.38-5.45-.79-8.175-1.18a.522.522 0 0 1-.432-.32c-1.234-2.5-2.433-5.01-3.678-7.5-1.269 2.52-2.44 5.1-3.704 7.62z" fill="#d44e4d" fill-rule="evenodd"/></svg>