<svg xmlns="http://www.w3.org/2000/svg" width="282" height="61"><path d="M1.791 2.41A19.1 19.1 0 0 1 2.071 0c6.234.265 12.476.334 18.713.521 3.24.1 6.487.114 9.718.4 2.229.14 4.463.155 6.695.214 1.914.073 3.828.184 5.743.184 2.027 0 4.046.227 6.073.235 6.022.069 103.044-.068 109.066-.168 1.52-.044 3.069.281 4.563-.125a3.476 3.476 0 0 1 .825-.11c2.412 0 4.823-.168 7.235-.071 4.219.076 82.435.168 86.653.22 7.271.128 14.562-.024 21.807.724a8.129 8.129 0 0 1 2.175.462c.027 5.294-.324 10.585-.22 15.878q.473 12.177.8 24.356c.064 2.416.113 4.832.069 7.25a3.559 3.559 0 0 0-1.571.47c-8.558-.406-17.131-.279-25.695-.271-9.794.04-93.586.156-103.38.273-8.372.094-107.744.255-116.117.3-1.971-.071-3.937.118-5.907.132-1.006.013-2.188-.411-3.054.288-3.651 2.758-7.212 5.633-10.948 8.274A16.326 16.326 0 0 1 12.732 61a4.439 4.439 0 0 1-.6-2.247 255.856 255.856 0 0 1-1.469-8.794c-.107-.7-.194-1.413-.238-2.123-3.489-.071-6.953-.549-10.424-.88a7.875 7.875 0 0 1 .553-.849 17.912 17.912 0 0 0 .127-2.072c.262-10.146.385-20.3.668-30.441.122-3.731.194-7.463.442-11.184z" fill-rule="evenodd" fill="#d44e4d"/><path d="M72.678 5.357a11 11 0 0 1 3.69-.367c.638.819-.269 2.3.66 3.117a1.639 1.639 0 0 0 2.03-.223c.3-.654.175-1.438.523-2.071a4.539 4.539 0 0 1 3.134-.09c.757.888.33 2.257-.029 3.246-1.362 2.778-5.221 3.307-7.8 2.067-2.028-1.07-2.301-3.626-2.208-5.679zm53.43 0a11.146 11.146 0 0 1 3.729-.367c.513.748-.122 1.808.316 2.631.229.88 1.351.823 2.018.546.94-.539.129-2.211 1.245-2.552a5.794 5.794 0 0 1 2.728.1c.614.571.373 1.524.287 2.258a4.737 4.737 0 0 1-4.425 3.634c-1.653.151-3.578-.072-4.733-1.409s-1.194-3.18-1.165-4.841zM38.57 11.788c.527-.956 1.789-.737 2.689-.694 2.973.378 5.945-.291 8.918-.144.814.622.477 1.934.455 2.836-.1 1.729-2.183 1.38-3.377 1.607-.295 5.928-.51 11.862-.485 17.8.072 2.854-.021 5.712-.2 8.562a24.442 24.442 0 0 1-4.138-.14c-.064-4.493.237-8.983.291-13.476.046-4.346-.556-8.688-.187-13.031-1.309-.137-2.858.51-3.98-.406a4.6 4.6 0 0 1 .014-2.914zm78.756-.809c1.223-.385 3.765-.5 3.686 1.348-.427 5.525.746 11.021.466 16.549-.179 3.483.025 6.967-.014 10.45a2.224 2.224 0 0 1-.983 2.1 4.88 4.88 0 0 1-2.836.3c-.918-.2-.864-1.337-.914-2.071 0-4.072.258-8.149.122-12.225-.112-5.039.093-10.083-.155-15.119a1.178 1.178 0 0 1 .628-1.332zm73.542 1.053c.359-1.182 1.822-1.017 2.786-.938 2.97.378 5.942-.291 8.915-.144.828.611.477 1.956.459 2.861-.118 1.711-2.187 1.352-3.374 1.578-.294 5.928-.51 11.859-.484 17.789.071 2.861-.022 5.723-.2 8.577a24.442 24.442 0 0 1-4.138-.14c-.064-4.493.237-8.986.291-13.483.046-4.342-.556-8.681-.187-13.023-1.305-.14-2.843.51-3.962-.4a4.713 4.713 0 0 1-.106-2.677zm-120.506.651c1-1.412 3.087-.895 4.579-1.164.47 1.431.072 2.93.176 4.4.154 4.03.717 8.052.426 12.092 1-2.042 1.768-4.188 2.593-6.305 1.2-3.135 1.66-6.532 3.138-9.558a9.166 9.166 0 0 1 2.919.277c.921.428.957 1.557.95 2.434-.015 5.277.391 10.54.416 15.817a80.292 80.292 0 0 0 .462 10.1c-.9 1.517-3.406 1.377-4.561.273.075-5.007-.308-10-.685-14.986-1.255 4.986-3.1 9.8-4.776 14.648-.3 1.434-2.062 1.4-3.192 1.183-1.369-.241-1.491-1.862-1.473-2.98.218-8.761-1.191-17.482-.972-26.231zm34.191-.808a3.4 3.4 0 0 1 3.2-.065 2.282 2.282 0 0 1 .38 1.592c.018 3.253.316 6.5.237 9.756-.018.712.8.791 1.316.909a9.029 9.029 0 0 1 5.382 2.721 5.278 5.278 0 0 1 1.069 3.512c-.011 2.344.061 4.7-.176 7.035a5.532 5.532 0 0 1-5.085 4.407c-1.818.122-3.646.093-5.464.04a1.245 1.245 0 0 1-1.227-1.42c.18-9.1.061-18.206-.125-27.308a1.4 1.4 0 0 1 .493-1.179zm3.916 16.4a76.96 76.96 0 0 1 .018 9.8 7.784 7.784 0 0 0 2.976-.611c.617-.791.445-1.895.538-2.836.007-1.819.33-3.875-.8-5.446-.613-.891-1.775-.882-2.732-.905zM123.788 12.7c.979-1.431 3.087-.906 4.582-1.179.474 1.434.068 2.937.176 4.411.154 4.026.714 8.041.427 12.074 1-2.042 1.768-4.187 2.592-6.305 1.2-3.135 1.661-6.528 3.138-9.554 1.043.083 2.216-.162 3.152.421.828.6.678 1.736.721 2.632-.011 5.158.39 10.306.412 15.46a79.961 79.961 0 0 0 .463 10.115c-.678 1.3-2.292 1.143-3.507.92a1.118 1.118 0 0 1-1.083-1.273c.129-4.8-.327-9.58-.657-14.361-1.255 4.986-3.1 9.8-4.776 14.648-.348 1.535-2.323 1.43-3.5 1.082-1.133-.428-1.137-1.84-1.162-2.854.216-8.763-1.186-17.486-.978-26.237zm-105.5-.4a10.548 10.548 0 0 1 3.933-.424.941.941 0 0 1 .994.852c.021 2.57-.144 5.137-.345 7.7h3.55a56.109 56.109 0 0 1-.172-6.945 1.392 1.392 0 0 1 1.359-1.208 7.623 7.623 0 0 1 2.855.1c.839.349.559 1.409.573 2.121a55.966 55.966 0 0 0-.19 6.157 16.972 16.972 0 0 0 3.963-.09 9.338 9.338 0 0 1 .018 4.943 41.393 41.393 0 0 1-4.221-.208 110.995 110.995 0 0 0-.029 3.264c1.288.151 2.837-.532 3.945.262.5 1.337.8 3.217-.133 4.414-1.183.294-2.42-.158-3.629-.122-.312 2.93.2 5.87-.211 8.793-1.173-.079-2.353-.061-3.518-.212a2.347 2.347 0 0 1-.922-2.045c-.043-2.254.337-4.486.391-6.74a33.8 33.8 0 0 0-4.263.007c-.015 2.606.319 5.205.251 7.815a.932.932 0 0 1-1.022.963A16.486 16.486 0 0 1 18.5 41.5a59.588 59.588 0 0 1-.33-8.577 8.45 8.45 0 0 1-3.055-.118c-1.212-.647-.986-2.272-.947-3.422.789-1.441 2.647-.938 3.955-.748.015-1.341.029-2.678.047-4.019a19.514 19.514 0 0 1-3.457.118c-.634-.23-.642-1.028-.706-1.585-.047-.909.075-2.16 1.094-2.495a27.581 27.581 0 0 1 3.266-.252 79.267 79.267 0 0 0-.075-8.102zm3.951 16.481h4.3v-4a35.161 35.161 0 0 0-4.031-.262q-.168 2.131-.265 4.265zm123.835-16.364c3.833-1.776 8.706 1.456 9.1 5.543a7.291 7.291 0 0 1-3.851.956c-.893-.618-.972-1.927-1.822-2.61a1.945 1.945 0 0 0-2.488.686 9.055 9.055 0 0 0-1.219 4.673c-.126 3.6-.2 7.2-.194 10.8a7.839 7.839 0 0 0 1.065 4.332 1.828 1.828 0 0 0 2.413.561c.918-.888 1.345-2.735 2.955-2.451 1.036.14 2.79.194 2.973 1.513-.409 2.031-2.184 3.462-3.834 4.536a5.729 5.729 0 0 1-6.081-.043 8.009 8.009 0 0 1-3.446-5.2 24.9 24.9 0 0 1-.276-6.477c.139-4.051-.176-8.207 1.058-12.128a7.391 7.391 0 0 1 3.647-4.691zm81.115.119c3.844-2.049 9.087 1.287 9.295 5.525a8.666 8.666 0 0 1-3.736.859c-.926-.6-.99-1.966-1.887-2.617a1.841 1.841 0 0 0-2.262.5 9.283 9.283 0 0 0-1.463 5.248A385.427 385.427 0 0 0 227 32.472a7.864 7.864 0 0 0 1.069 4.328 1.888 1.888 0 0 0 2.147.7c.926-.629 1.18-1.93 2.174-2.484a4.993 4.993 0 0 1 3.621.615 1.093 1.093 0 0 1 .047 1.635c-1.223 1.693-2.525 3.562-4.561 4.314a6.441 6.441 0 0 1-6.745-2.2c-1.861-2.337-2.188-5.471-2.041-8.358.183-4.411-.251-8.914.872-13.235a7.976 7.976 0 0 1 3.606-5.251zm12.58.255c2.291-.522 4.679-1.032 7.017-.478a5.614 5.614 0 0 1 4.465 3.667 8.6 8.6 0 0 1-1.772 7.7c2 1.416 2.593 3.961 2.485 6.291-.082 3.044.373 6.477-1.527 9.1-1.105 1.6-3.138 1.912-4.884 2.347a22.21 22.21 0 0 1-5.3.432c-.918-1.528-.735-3.368-.764-5.076.029-7.997-.463-16.006.28-23.983zm4.134 3.217c.093 2.16.058 4.325.237 6.477a4.028 4.028 0 0 0 2.826-5.7c-.653-1.039-2.034-.755-3.066-.777zm-.003 10.263a90.95 90.95 0 0 0 .215 10.547 9.813 9.813 0 0 0 2.5-.471c.771-.389.789-1.359.975-2.1a16.683 16.683 0 0 0 .1-6.665c-.574-1.545-2.446-1.502-3.79-1.311zm14.992-13.595c3-1.7 7.61-1.057 9.277 2.2.542 1.226 1.463 2.509 1.137 3.911-.746 1.132-2.349 1.2-3.557 1.021-1.463-.428-1.019-2.437-2.141-3.224a2.279 2.279 0 0 0-2.51-.237c-1.567 1.107-2.259 3.591-.915 5.137 2.84 3.386 6.957 5.64 9.076 9.637a8.079 8.079 0 0 1-.491 7.624 7.156 7.156 0 0 1-5.92 3.153 6.974 6.974 0 0 1-7.165-5.442c-.147-.866-.219-2.07.71-2.534a5.044 5.044 0 0 1 3.758.172c.158 1.391.706 3.235 2.338 3.437a2.739 2.739 0 0 0 2.815-3.584c-1.377-4.095-5.239-6.474-8.129-9.4-2.952-3.413-2.425-9.639 1.713-11.871zm-199.65 1.891a4.794 4.794 0 0 1 1.048-2.279c.921-.338 1.918.033 2.872.015a17.446 17.446 0 0 1 .731 2.851c.854 4.749 1.506 9.529 2.346 14.278.509 3.562 1.753 7 1.99 10.6a3.769 3.769 0 0 1-.52 1.715 10.444 10.444 0 0 1-3.393-.331 54.974 54.974 0 0 1-1.523-7.293 32.28 32.28 0 0 0-3.547-.047c-1.151 2.39-.886 5.2-2.033 7.574-1.09.194-2.668.481-3.364-.618-.344-2.221.642-4.342 1.22-6.438 1.462-6.662 2.391-13.438 4.169-20.027zm.793 15.655c.714-.047 1.427-.09 2.141-.133a46.662 46.662 0 0 0-.771-6.74c-.546 2.271-.905 4.583-1.374 6.872zm103.7-16.14a3.558 3.558 0 0 1 .918-1.8c.921-.324 1.911.04 2.861.022 1.467 5.18 1.847 10.6 2.862 15.881.5 3.879 1.8 7.6 2.191 11.5a3.458 3.458 0 0 1-.509 2.067 10.583 10.583 0 0 1-3.382-.323 54.008 54.008 0 0 1-1.531-7.3 34.119 34.119 0 0 0-3.543-.05c-1.122 2.419-.957 5.191-2 7.628-1.119.05-2.69.478-3.393-.669a10.236 10.236 0 0 1 .657-4.626 49.788 49.788 0 0 0 1.578-6.862c1.038-5.17 1.823-10.396 3.283-15.468zm.653 16.14c.71-.047 1.423-.09 2.14-.133a46 46 0 0 0-.774-6.736c-.546 2.271-.908 4.579-1.374 6.868zm47.691-17c.395-1.65 2.3-.913 3.486-.92a40.34 40.34 0 0 1 1.323 6.3c.706 4.407 1.366 8.821 2.177 13.214a62.6 62.6 0 0 1 1.552 7.872 3.474 3.474 0 0 1-.509 2.056 10.488 10.488 0 0 1-3.385-.327 54.412 54.412 0 0 1-1.527-7.3 34.05 34.05 0 0 0-3.54-.05c-1.158 2.383-.9 5.187-2.026 7.567-1.05.219-2.341.41-3.227-.345a2.538 2.538 0 0 1-.2-1.646c.183-2.416 1.373-4.6 1.689-7 1.357-6.469 2.208-13.087 4.179-19.421zm1.725 10.13c-.534 2.272-.9 4.58-1.366 6.869.71-.047 1.424-.09 2.141-.133a46.061 46.061 0 0 0-.779-6.736zM88.417 14.833a1.486 1.486 0 0 1 1.244-1.8c1-.137 3.023-.492 2.883 1.1.079 4.145-.194 8.293-.154 12.438 1.585.047 3.166.176 4.751.2.093-3.735.692-7.434.7-11.172a5.23 5.23 0 0 1 .355-2.25c1.352-.888 3.887-.011 3.726 1.848.028 4.439-.32 8.871-.542 13.3-.265 4.335-.3 8.685-.61 13.016-1.294.129-3.467.92-3.826-.953a92.01 92.01 0 0 1 .061-9.838c-1.585-.05-3.166-.176-4.755-.205-.125 3.422.133 6.905-.649 10.263-.121.96-1.226.91-1.947.939a2.091 2.091 0 0 1-1.807-.6c-.072-2.171.377-4.328.276-6.507-.198-6.591.423-13.18.294-19.779zm86.419.025c-.007-.661.122-1.585.911-1.74a4.387 4.387 0 0 1 3.023.115 4.328 4.328 0 0 1 .218 1.617c-.007 3.907-.2 7.811-.179 11.718 1.585.047 3.166.176 4.751.2.093-3.739.692-7.444.7-11.186a5.306 5.306 0 0 1 .348-2.229c1.348-.9 3.9-.018 3.733 1.848.029 4.558-.337 9.109-.563 13.659-.251 4.217-.28 8.444-.592 12.657a11.675 11.675 0 0 1-2.843.226c-.872-.23-1.069-1.287-1.087-2.059-.036-2.988.05-5.978.169-8.961-1.585-.05-3.167-.176-4.755-.205-.129 3.426.136 6.916-.653 10.274-.125.952-1.23.9-1.94.927-.609-.04-1.5 0-1.811-.629a22.261 22.261 0 0 1 .162-3.242c.215-2.265.057-4.544.082-6.812.01-5.391.448-10.779.326-16.178z" fill="#fff" fill-rule="evenodd"/></svg>